<svg width="24" height="24" viewBox="0 0 24 24" fill="none" xmlns="http://www.w3.org/2000/svg">
<g clip-path="url(#clip0_4736_6230)">
<path d="M13.2826 12.0117L18.7339 6.56019C19.0887 6.2056 19.0887 5.63226 18.7339 5.27767C18.3793 4.92307 17.806 4.92307 17.4514 5.27767L11.9999 10.7292L6.5486 5.27767C6.19384 4.92307 5.62067 4.92307 5.26607 5.27767C4.91131 5.63226 4.91131 6.2056 5.26607 6.56019L10.7174 12.0117L5.26607 17.4632C4.91131 17.8178 4.91131 18.3911 5.26607 18.7457C5.44279 18.9226 5.67515 19.0114 5.90734 19.0114C6.13953 19.0114 6.37172 18.9226 6.5486 18.7457L11.9999 13.2942L17.4514 18.7457C17.6283 18.9226 17.8605 19.0114 18.0927 19.0114C18.3249 19.0114 18.5571 18.9226 18.7339 18.7457C19.0887 18.3911 19.0887 17.8178 18.7339 17.4632L13.2826 12.0117Z" fill="white"/>
</g>
<defs>
<clipPath id="clip0_4736_6230">
<rect width="14" height="14" fill="white" transform="translate(5 5)"/>
</clipPath>
</defs>
</svg>
